:version	1.10
:name	0101
:units
	mass	kg
	length	m
	angle	deg
:documentation
	fps:30
:root
	axis	XYZ
	order	TX	TY	TZ	RX	RY	RZ
	position	0.00	0.00	0.00
	orientation	0.00	0.00	0.00
:bonedata
	begin
		id	1
		name	Head
		direction	-18.5	116.2	-38.8
		length	123.9
		axis	0.0	0.0	0.0	XYZ
		dof	rx	ry	rz
		limits	(-inf	inf)
			(-inf	inf)
			(-inf	inf)
	end
	begin
		id	2
		name	Neck
		direction	-1.6	89.5	-15.3
		length	90.8
		axis	0.0	0.0	0.0	XYZ
		dof	rx	ry	rz
		limits	(-inf	inf)
			(-inf	inf)
			(-inf	inf)
	end
	begin
		id	3
		name	LeftCollar
		direction	-5.0	276.0	-47.2
		length	280.1
		axis	0.0	0.0	0.0	XYZ
		dof	rx	ry	rz
		limits	(-inf	inf)
			(-inf	inf)
			(-inf	inf)
	end
	begin
		id	4
		name	Torso
		direction	4.0	199.4	8.5
		length	199.7
		axis	0.0	0.0	0.0	XYZ
		dof	rx	ry	rz
		limits	(-inf	inf)
			(-inf	inf)
			(-inf	inf)
	end
	begin
		id	5
		name	LeftShoulder
		direction	170.7	-14.1	-44.7
		length	177.0
		axis	0.0	0.0	0.0	XYZ
		dof	rx	ry	rz
		limits	(-inf	inf)
			(-inf	inf)
			(-inf	inf)
	end
	begin
		id	6
		name	RightShoulder
		direction	-174.2	6.3	52.4
		length	182.0
		axis	0.0	0.0	0.0	XYZ
		dof	rx	ry	rz
		limits	(-inf	inf)
			(-inf	inf)
			(-inf	inf)
	end
	begin
		id	7
		name	LeftElbow
		direction	55.3	-271.7	26.6
		length	278.5
		axis	0.0	0.0	0.0	XYZ
		dof	rx	ry	rz
		limits	(-inf	inf)
			(-inf	inf)
			(-inf	inf)
	end
	begin
		id	8
		name	RightElbow
		direction	-37.0	-268.0	66.2
		length	278.5
		axis	0.0	0.0	0.0	XYZ
		dof	rx	ry	rz
		limits	(-inf	inf)
			(-inf	inf)
			(-inf	inf)
	end
	begin
		id	9
		name	LeftWrist
		direction	69.1	-260.5	-128.7
		length	298.7
		axis	0.0	0.0	0.0	XYZ
		dof	rx	ry	rz
		limits	(-inf	inf)
			(-inf	inf)
			(-inf	inf)
	end
	begin
		id	10
		name	RightWrist
		direction	-79.9	-277.4	-76.9
		length	298.7
		axis	0.0	0.0	0.0	XYZ
		dof	rx	ry	rz
		limits	(-inf	inf)
			(-inf	inf)
			(-inf	inf)
	end
	begin
		id	11
		name	LeftHand
		direction	13.8	-52.1	-25.7
		length	59.7
		axis	0.0	0.0	0.0	XYZ
		dof	rx	ry	rz
		limits	(-inf	inf)
			(-inf	inf)
			(-inf	inf)
	end
	begin
		id	12
		name	RightHand
		direction	-16.0	-55.5	-15.4
		length	59.7
		axis	0.0	0.0	0.0	XYZ
		dof	rx	ry	rz
		limits	(-inf	inf)
			(-inf	inf)
			(-inf	inf)
	end
	begin
		id	13
		name	LeftHip
		direction	117.3	-70.1	12.8
		length	137.3
		axis	0.0	0.0	0.0	XYZ
		dof	rx	ry	rz
		limits	(-inf	inf)
			(-inf	inf)
			(-inf	inf)
	end
	begin
		id	14
		name	RightHip
		direction	-108.5	-76.7	41.0
		length	139.0
		axis	0.0	0.0	0.0	XYZ
		dof	rx	ry	rz
		limits	(-inf	inf)
			(-inf	inf)
			(-inf	inf)
	end
	begin
		id	15
		name	LeftKnee
		direction	-0.2	-428.3	-95.5
		length	438.9
		axis	0.0	0.0	0.0	XYZ
		dof	rx	ry	rz
		limits	(-inf	inf)
			(-inf	inf)
			(-inf	inf)
	end
	begin
		id	16
		name	RightKnee
		direction	16.9	-434.8	-56.9
		length	438.9
		axis	0.0	0.0	0.0	XYZ
		dof	rx	ry	rz
		limits	(-inf	inf)
			(-inf	inf)
			(-inf	inf)
	end
	begin
		id	17
		name	LeftAnkle
		direction	51.1	-389.3	75.6
		length	399.8
		axis	0.0	0.0	0.0	XYZ
		dof	rx	ry	rz
		limits	(-inf	inf)
			(-inf	inf)
			(-inf	inf)
	end
	begin
		id	18
		name	RightAnkle
		direction	-36.9	-388.8	85.6
		length	399.8
		axis	0.0	0.0	0.0	XYZ
		dof	rx	ry	rz
		limits	(-inf	inf)
			(-inf	inf)
			(-inf	inf)
	end
:hierarchy
	begin
		Neck	Head
		LeftCollar	Neck	LeftShoulder	RightShoulder
		Torso	LeftCollar
		root	Torso	LeftHip	RightHip
		LeftShoulder	LeftElbow
		RightShoulder	RightElbow
		LeftElbow	LeftWrist
		RightElbow	RightWrist
		LeftWrist	LeftHand
		RightWrist	RightHand
		LeftHip	LeftKnee
		RightHip	RightKnee
		LeftKnee	LeftAnkle
		RightKnee	RightAnkle
	end

:FULLY-SPECIFIED
:DEGREES
93
Head	-7.93	13.18	-0.40
Neck	-7.93	13.18	-0.40
LeftCollar	-7.93	13.18	-0.40
Torso	-7.93	13.18	-0.40
root	133.00	21.34	2751.86	-0.66	7.45	2.97
LeftShoulder	19.11	-2.65	-38.17
RightShoulder	20.07	16.65	79.91
LeftElbow	21.86	28.57	-26.39
RightElbow	19.68	-12.50	69.51
LeftWrist	22.09	29.61	-25.91
RightWrist	19.73	-13.12	69.28
LeftHand	22.09	29.61	-25.91
RightHand	19.73	-13.12	69.28
LeftHip	5.65	39.77	2.40
RightHip	2.34	-35.55	2.44
LeftKnee	-7.28	39.77	2.40
RightKnee	-10.17	-35.55	2.44
LeftAnkle	-7.28	39.77	2.40
RightAnkle	-10.17	-35.55	2.44
94
Head	-7.93	13.18	-0.40
Neck	-7.93	13.18	-0.40
LeftCollar	-7.93	13.18	-0.40
Torso	-7.93	13.18	-0.40
root	133.00	21.34	2751.86	-0.66	7.45	2.97
LeftShoulder	19.11	-2.65	-38.17
RightShoulder	20.07	16.65	79.91
LeftElbow	21.86	28.57	-26.39
RightElbow	19.68	-12.50	69.51
LeftWrist	22.09	29.61	-25.91
RightWrist	19.73	-13.12	69.28
LeftHand	22.09	29.61	-25.91
RightHand	19.73	-13.12	69.28
LeftHip	5.65	39.77	2.40
RightHip	2.34	-35.55	2.44
LeftKnee	-7.28	39.77	2.40
RightKnee	-10.17	-35.55	2.44
LeftAnkle	-7.28	39.77	2.40
RightAnkle	-10.17	-35.55	2.44
95
Head	-7.85	12.64	-0.15
Neck	-7.85	12.64	-0.15
LeftCollar	-7.85	12.64	-0.15
Torso	-7.85	12.64	-0.15
root	130.88	19.42	2752.52	-1.45	7.93	3.13
LeftShoulder	22.63	-2.81	-29.32
RightShoulder	22.17	17.35	79.44
LeftElbow	27.21	32.78	-12.60
RightElbow	21.63	-12.30	67.68
LeftWrist	27.72	34.27	-11.67
RightWrist	21.69	-13.01	67.40
LeftHand	27.72	34.27	-11.67
RightHand	21.69	-13.01	67.40
LeftHip	4.87	40.66	2.58
RightHip	1.47	-35.53	2.22
LeftKnee	-6.04	40.66	2.58
RightKnee	-9.19	-35.53	2.22
LeftAnkle	-6.04	40.66	2.58
RightAnkle	-9.19	-35.53	2.22
96
Head	-7.85	12.38	0.35
Neck	-7.85	12.38	0.35
LeftCollar	-7.85	12.38	0.35
Torso	-7.85	12.38	0.35
root	130.93	19.32	2753.37	-1.63	7.74	3.30
LeftShoulder	31.06	-3.67	-22.49
RightShoulder	25.21	18.22	79.29
LeftElbow	37.74	32.73	2.42
RightElbow	24.41	-11.73	65.64
LeftWrist	38.52	34.24	3.84
RightWrist	24.48	-12.42	65.32
LeftHand	38.52	34.24	3.84
RightHand	24.48	-12.42	65.32
LeftHip	4.48	41.15	2.72
RightHip	1.68	-35.87	1.96
LeftKnee	-5.07	41.15	2.72
RightKnee	-8.54	-35.87	1.96
LeftAnkle	-5.07	41.15	2.72
RightAnkle	-8.54	-35.87	1.96
97
Head	-7.85	12.38	0.35
Neck	-7.85	12.38	0.35
LeftCollar	-7.85	12.38	0.35
Torso	-7.85	12.38	0.35
root	130.93	19.32	2753.37	-1.63	7.74	3.30
LeftShoulder	31.06	-3.67	-22.49
RightShoulder	25.21	18.22	79.29
LeftElbow	37.74	32.73	2.42
RightElbow	24.41	-11.73	65.64
LeftWrist	38.52	34.24	3.84
RightWrist	24.48	-12.42	65.32
LeftHand	38.52	34.24	3.84
RightHand	24.48	-12.42	65.32
LeftHip	4.48	41.15	2.72
RightHip	1.68	-35.87	1.96
LeftKnee	-5.07	41.15	2.72
RightKnee	-8.54	-35.87	1.96
LeftAnkle	-5.07	41.15	2.72
RightAnkle	-8.54	-35.87	1.96
98
Head	-8.10	12.02	0.86
Neck	-8.10	12.02	0.86
LeftCollar	-8.10	12.02	0.86
Torso	-8.10	12.02	0.86
root	131.24	25.32	2754.70	-1.67	8.25	3.56
LeftShoulder	31.58	-3.85	-12.12
RightShoulder	28.27	19.18	79.32
LeftElbow	36.63	28.89	10.00
RightElbow	27.10	-10.96	63.75
LeftWrist	37.09	29.96	10.92
RightWrist	27.18	-11.67	63.37
LeftHand	37.09	29.96	10.92
RightHand	27.18	-11.67	63.37
LeftHip	4.26	42.15	2.64
RightHip	1.48	-35.27	1.81
LeftKnee	-4.42	42.15	2.64
RightKnee	-7.19	-35.27	1.81
LeftAnkle	-4.42	42.15	2.64
RightAnkle	-7.19	-35.27	1.81
99
Head	-8.10	12.02	0.86
Neck	-8.10	12.02	0.86
LeftCollar	-8.10	12.02	0.86
Torso	-8.10	12.02	0.86
root	131.24	25.32	2754.70	-1.67	8.25	3.56
LeftShoulder	31.58	-3.85	-12.12
RightShoulder	28.27	19.18	79.32
LeftElbow	36.63	28.89	10.00
RightElbow	27.10	-10.96	63.75
LeftWrist	37.09	29.96	10.92
RightWrist	27.18	-11.67	63.37
LeftHand	37.09	29.96	10.92
RightHand	27.18	-11.67	63.37
LeftHip	4.26	42.15	2.64
RightHip	1.48	-35.27	1.81
LeftKnee	-4.42	42.15	2.64
RightKnee	-7.19	-35.27	1.81
LeftAnkle	-4.42	42.15	2.64
RightAnkle	-7.19	-35.27	1.81
100
Head	-8.10	12.02	0.86
Neck	-8.10	12.02	0.86
LeftCollar	-8.10	12.02	0.86
Torso	-8.10	12.02	0.86
root	131.24	25.32	2754.70	-1.67	8.25	3.56
LeftShoulder	31.58	-3.85	-12.12
RightShoulder	28.27	19.18	79.32
LeftElbow	36.63	28.89	10.00
RightElbow	27.10	-10.96	63.75
LeftWrist	37.09	29.96	10.92
RightWrist	27.18	-11.67	63.37
LeftHand	37.09	29.96	10.92
RightHand	27.18	-11.67	63.37
LeftHip	4.26	42.15	2.64
RightHip	1.48	-35.27	1.81
LeftKnee	-4.42	42.15	2.64
RightKnee	-7.19	-35.27	1.81
LeftAnkle	-4.42	42.15	2.64
RightAnkle	-7.19	-35.27	1.81
101
Head	-8.06	11.09	1.38
Neck	-8.06	11.09	1.38
LeftCollar	-8.06	11.09	1.38
Torso	-8.06	11.09	1.38
root	131.62	30.44	2756.02	-1.77	9.08	3.62
LeftShoulder	23.92	-5.11	-1.29
RightShoulder	30.62	19.80	79.28
LeftElbow	26.90	26.77	13.84
RightElbow	29.09	-9.63	62.63
LeftWrist	27.10	27.54	14.28
RightWrist	29.14	-10.16	62.33
LeftHand	27.10	27.54	14.28
RightHand	29.14	-10.16	62.33
LeftHip	4.24	43.54	2.50
RightHip	1.23	-34.42	1.64
LeftKnee	-4.52	43.54	2.50
RightKnee	-6.32	-34.42	1.64
LeftAnkle	-4.52	43.54	2.50
RightAnkle	-6.32	-34.42	1.64
102
Head	-8.10	10.48	1.83
Neck	-8.10	10.48	1.83
LeftCollar	-8.10	10.48	1.83
Torso	-8.10	10.48	1.83
root	132.01	34.01	2757.39	-1.49	8.96	3.63
LeftShoulder	12.33	-6.94	7.38
RightShoulder	32.90	20.47	79.28
LeftElbow	13.88	27.89	15.48
RightElbow	30.93	-8.04	61.75
LeftWrist	14.02	28.90	15.77
RightWrist	30.95	-8.37	61.55
LeftHand	14.02	28.90	15.77
RightHand	30.95	-8.37	61.55
LeftHip	4.39	43.84	2.39
RightHip	1.39	-34.45	1.60
LeftKnee	-4.83	43.84	2.39
RightKnee	-6.42	-34.45	1.60
LeftAnkle	-4.83	43.84	2.39
RightAnkle	-6.42	-34.45	1.60
103
Head	-8.10	10.48	1.83
Neck	-8.10	10.48	1.83
LeftCollar	-8.10	10.48	1.83
Torso	-8.10	10.48	1.83
root	132.01	34.01	2757.39	-1.49	8.96	3.63
LeftShoulder	12.33	-6.94	7.38
RightShoulder	32.90	20.47	79.28
LeftElbow	13.88	27.89	15.48
RightElbow	30.93	-8.04	61.75
LeftWrist	14.02	28.90	15.77
RightWrist	30.95	-8.37	61.55
LeftHand	14.02	28.90	15.77
RightHand	30.95	-8.37	61.55
LeftHip	4.39	43.84	2.39
RightHip	1.39	-34.45	1.60
LeftKnee	-4.83	43.84	2.39
RightKnee	-6.42	-34.45	1.60
LeftAnkle	-4.83	43.84	2.39
RightAnkle	-6.42	-34.45	1.60
104
Head	-8.12	9.91	2.03
Neck	-8.12	9.91	2.03
LeftCollar	-8.12	9.91	2.03
Torso	-8.12	9.91	2.03
root	132.40	36.40	2758.80	-1.59	9.45	3.58
LeftShoulder	12.51	-6.53	11.83
RightShoulder	33.40	20.44	79.38
LeftElbow	14.24	28.93	20.28
RightElbow	31.38	-7.95	61.59
LeftWrist	14.40	30.03	20.60
RightWrist	31.41	-8.24	61.41
LeftHand	14.40	30.03	20.60
RightHand	31.41	-8.24	61.41
LeftHip	4.54	44.52	2.33
RightHip	1.06	-33.95	1.53
LeftKnee	-5.15	44.52	2.33
RightKnee	-5.72	-33.95	1.53
LeftAnkle	-5.15	44.52	2.33
RightAnkle	-5.72	-33.95	1.53
105
Head	-8.12	9.91	2.03
Neck	-8.12	9.91	2.03
LeftCollar	-8.12	9.91	2.03
Torso	-8.12	9.91	2.03
root	132.40	36.40	2758.80	-1.59	9.45	3.58
LeftShoulder	12.51	-6.53	11.83
RightShoulder	33.40	20.44	79.38
LeftElbow	14.24	28.93	20.28
RightElbow	31.38	-7.95	61.59
LeftWrist	14.40	30.03	20.60
RightWrist	31.41	-8.24	61.41
LeftHand	14.40	30.03	20.60
RightHand	31.41	-8.24	61.41
LeftHip	4.54	44.52	2.33
RightHip	1.06	-33.95	1.53
LeftKnee	-5.15	44.52	2.33
RightKnee	-5.72	-33.95	1.53
LeftAnkle	-5.15	44.52	2.33
RightAnkle	-5.72	-33.95	1.53
